<svg preserveAspectRatio="xMidYMid meet" data-bbox="27.41 41.989 125.18 96.011" viewBox="27.41 41.989 125.18 96.011" xmlns="http://www.w3.org/2000/svg" data-type="color" role="presentation" aria-hidden="true" aria-label="">
    <g>
        <path d="m140.05 57.2 1.28-15.2h-8.61C118.25 41.93 99 41.86 90 58.55 81.05 41.86 61.76 41.92 47.28 42h-8.61L40 57.2H27.41l7.68 79.39 37.56-5.08 2.85 4.32.45.51a7.13 7.13 0 0 0 4.59 1.66h18.92a7.13 7.13 0 0 0 4.59-1.66l3.3-4.83 37.56 5.08 7.68-79.39zm-7.36-10.43h3.46l-6.08 72.37c-7.28-1.74-26.72-5.22-37.64 3.73l-.05-58c6.52-18.28 24.47-18.19 40.31-18.1zm-85.38 0c15.86-.09 33.8-.18 40.31 18.07v58.13c-10.91-9-30.44-5.56-37.74-3.81l-6.03-72.37zm93.34 84.44L105 126.39l-4.27 6.48a2.4 2.4 0 0 1-1.29.37h-18.9a2.4 2.4 0 0 1-1.29-.37L75 126.39l-35.63 4.82L32.66 62h7.69l5.32 63.34 2.81-.84c.27-.09 27.66-8.1 37.93 3.87l.71.83h5.76l.71-.83c10.25-12 37.66-4 37.94-3.87l2.8.83L139.65 62h7.69z" fill="#64c19b" data-color="1"></path>
    </g>
</svg>