<svg preserveAspectRatio="xMidYMid meet" data-bbox="22.63 22.63 134.74 134.74" viewBox="22.63 22.63 134.74 134.74" xmlns="http://www.w3.org/2000/svg" data-type="color" role="presentation" aria-hidden="true" aria-label="">
    <g>
        <path d="M157.37 96.74V83.26h-11.65a56.57 56.57 0 0 0-1.65-8.39l10.74-4.45L149.65 58l-10.75 4.43a56.92 56.92 0 0 0-4.73-7.07l8.23-8.23-9.53-9.53-8.23 8.23a55.7 55.7 0 0 0-7.11-4.75L122 30.33l-12.46-5.16-4.44 10.75a54.55 54.55 0 0 0-8.35-1.64V22.63H83.26v11.65a55.32 55.32 0 0 0-8.39 1.65l-4.45-10.74L58 30.35l4.43 10.75a56.92 56.92 0 0 0-7.07 4.73l-8.23-8.23-9.53 9.53 8.23 8.23a55.7 55.7 0 0 0-4.75 7.11L30.32 58l-5.15 12.46 10.75 4.45a56.06 56.06 0 0 0-1.65 8.35H22.63v13.48h11.64a56.6 56.6 0 0 0 1.66 8.39l-10.74 4.45L30.35 122l10.75-4.46a56.92 56.92 0 0 0 4.73 7.07l-8.23 8.23 9.53 9.53 8.23-8.23a55.7 55.7 0 0 0 7.11 4.75L58 149.67l12.46 5.16 4.44-10.75a54.55 54.55 0 0 0 8.35 1.64v11.65h13.49v-11.65a55.08 55.08 0 0 0 8.39-1.65l4.45 10.74 12.42-5.16-4.46-10.75a56.92 56.92 0 0 0 7.07-4.73l8.23 8.23 9.53-9.53-8.23-8.23a56.3 56.3 0 0 0 4.75-7.1l10.79 4.46 5.15-12.44-10.75-4.45a54.79 54.79 0 0 0 1.64-8.35zM149 112l-1.72 4.15-10.38-4.3-1 1.83a51.52 51.52 0 0 1-6.48 9.69l-1.33 1.58 8 8-3.18 3.18-8-8-1.58 1.33a51.5 51.5 0 0 1-9.65 6.47l-1.83.94 4.3 10.38-4.15 1.69-4.3-10.37-2 .63a52.14 52.14 0 0 1-11.43 2.26l-2.06.17v11.25h-4.5v-11.25l-2.06-.17a52 52 0 0 1-11.4-2.25l-2-.63L68 149l-4.15-1.72 4.3-10.38-1.83-1a52.17 52.17 0 0 1-9.69-6.48l-1.58-1.33-7.95 8-3.1-3.22 7.95-8-1.33-1.58a51.37 51.37 0 0 1-6.46-9.66l-1-1.83-10.38 4.31-1.72-4.11 10.37-4.3-.63-2a51.67 51.67 0 0 1-2.26-11.43l-.17-2.06H27.12v-4.5h11.25l.17-2.06a51.31 51.31 0 0 1 2.25-11.35l.63-2L31 68l1.72-4.15 10.38 4.3 1-1.83a51.52 51.52 0 0 1 6.48-9.69l1.33-1.58L44 47.13 47.13 44l7.95 7.95 1.58-1.33a51.29 51.29 0 0 1 9.65-6.46l1.83-1-4.3-10.38L68 31.06l4.3 10.37 2-.63a52.25 52.25 0 0 1 11.43-2.26l2.06-.17V27.12h4.5v11.25l2.06.17a52 52 0 0 1 11.4 2.25l2 .63L112 31l4.15 1.72-4.3 10.38 1.83 1a51.52 51.52 0 0 1 9.69 6.48l1.58 1.33 8-7.95 3.18 3.18-8 7.95 1.33 1.58a50.73 50.73 0 0 1 6.46 9.66l1 1.83 10.38-4.31 1.64 4.15-10.37 4.3.63 2a51.67 51.67 0 0 1 2.26 11.43l.17 2.06h11.25v4.5h-11.25l-.17 2.06a51.51 51.51 0 0 1-2.25 11.4l-.62 2z" fill="#64c19b" data-color="1"></path>
        <path d="M90 45.09A44.91 44.91 0 1 0 134.91 90 45 45 0 0 0 90 45.09zM128.24 77l-28.57 7.39a11.14 11.14 0 0 0-15.85-3.75L63.1 59.92A40.3 40.3 0 0 1 128.24 77zm-45 13A6.74 6.74 0 1 1 90 96.74 6.75 6.75 0 0 1 83.26 90zm-33.66 0a40.21 40.21 0 0 1 10.34-26.91l20.72 20.73a11.14 11.14 0 0 0 3.75 15.85L77 128.24A40.46 40.46 0 0 1 49.58 90zM90 130.42a39.92 39.92 0 0 1-8.67-1l7.33-28.37a9.81 9.81 0 0 0 1.34.14A11.25 11.25 0 0 0 101.23 90a10 10 0 0 0-.14-1.34l28.37-7.33a40 40 0 0 1 1 8.67A40.46 40.46 0 0 1 90 130.42z" fill="#64c19b" data-color="1"></path>
    </g>
</svg>