<?xml version="1.0" encoding="UTF-8"?>
<svg id="OBJECTS" xmlns="http://www.w3.org/2000/svg" version="1.1" viewBox="0 0 42.6 40.7">
  <!-- Generator: Adobe Illustrator 29.7.1, SVG Export Plug-In . SVG Version: 2.1.1 Build 8)  -->
  <defs>
    <style>
      .st0 {
        fill: #fff;
      }
    </style>
  </defs>
  <path class="st0" d="M23.8,17.2h0c0,0,0,0,0,0h0Z"/>
  <path class="st0" d="M9.7,40.7H.5V13.2h9.1v27.4ZM5.1,9.5h0C2,9.5,0,7.4,0,4.7S2,0,5.2,0s5,2,5.1,4.7c0,2.6-2,4.7-5.2,4.7ZM42.6,40.7h-9.1v-14.7c0-3.7-1.3-6.2-4.6-6.2s-4,1.7-4.7,3.3c-.2.6-.3,1.4-.3,2.2v15.3h-9.1s.1-24.9,0-27.4h9.1v3.9c1.2-1.9,3.4-4.5,8.2-4.5s10.5,3.9,10.5,12.3v15.7Z"/>
</svg>