<?xml version="1.0" encoding="UTF-8"?>
<svg id="OBJECTS" xmlns="http://www.w3.org/2000/svg" version="1.1" viewBox="0 0 36.1 39.9">
  <!-- Generator: Adobe Illustrator 29.7.1, SVG Export Plug-In . SVG Version: 2.1.1 Build 8)  -->
  <defs>
    <style>
      .st0 {
        fill: #fff;
      }
    </style>
  </defs>
  <path class="st0" d="M12,20c0,.5,0,.9-.2,1.4l14.3,8.3c1-.9,2.4-1.5,3.9-1.5,3.2,0,5.9,2.6,5.9,5.9s-2.6,5.9-5.9,5.9-5.9-2.6-5.9-5.9,0-.9.2-1.3l-14.3-8.3c-1.1,1-2.5,1.6-4.1,1.6-3.3,0-6-2.7-6-6s2.7-6,6-6,3,.6,4.1,1.6l14.1-8.2c-.1-.5-.2-.9-.2-1.4,0-3.3,2.7-6,6-6s6,2.7,6,6-2.7,6-6,6-3-.6-4.1-1.6l-14.1,8.2c.1.5.2.9.2,1.4Z"/>
</svg>