<svg preserveAspectRatio="xMidYMid meet" data-bbox="27.73 25.29 124.6 129.32" viewBox="27.73 25.29 124.6 129.32" xmlns="http://www.w3.org/2000/svg" data-type="color" role="presentation" aria-hidden="true" aria-label="">
    <g>
        <path d="m90.17 135.11-.17-.23-.17.23-2.17-3.11c-1-1.48-25.32-36.39-30-43.86-5-7.94-7-14.76-7-23.55a39.3 39.3 0 0 1 78.6 0c0 8.79-2 15.61-7 23.55-4.67 7.47-29 42.38-30 43.86zm-.11-104.4A34 34 0 0 0 56 64.59c0 7.8 1.71 13.62 6.16 20.73 3.79 6.07 21.46 31.57 27.68 40.52l.15-.23.15.21c6.23-9 23.87-34.44 27.66-40.5 4.45-7.11 6.17-12.93 6.16-20.73a34 34 0 0 0-33.9-33.88z" fill="#64c19b" data-color="1"></path>
        <path d="M90.08 85.72h-.23a18.8 18.8 0 1 1 .23 0zM90 50a15.28 15.28 0 0 0-15.28 15.16 15.23 15.23 0 0 0 15.2 15.25h.16A15.23 15.23 0 0 0 90 50z" fill="#64c19b" data-color="1"></path>
        <path d="m119.25 104.69-2.93 4.81c18.37 3.72 30.7 11.18 30.7 18.62 0 10.17-22.91 21.11-57 21.17s-57-11-57-21.17c0-7.43 12.3-14.89 30.64-18.61l-2.93-4.8c-20.72 4.55-33 13.21-33 23.41C27.67 142.9 55 154.54 90 154.61s62.33-11.71 62.33-26.49c0-10.2-12.33-18.88-33.08-23.43z" fill="#64c19b" data-color="1"></path>
    </g>
</svg>