<svg preserveAspectRatio="xMidYMid meet" data-bbox="25.29 36.498 129.42 107.002" viewBox="25.29 36.498 129.42 107.002" xmlns="http://www.w3.org/2000/svg" data-type="color" role="presentation" aria-hidden="true" aria-label="">
    <g>
        <path d="M143.92 143.5H32.73v-17.66h5v-5.1H43v-27.3h-5.4V89h-3.19v-8.4A7 7 0 0 1 29 77.2l-3.71-6.6L82.9 38.14a16.17 16.17 0 0 1 14.2 0l57.61 32.46-3.71 6.6a7.23 7.23 0 0 1-6.5 3.46h-.58V89H141v4.41h-4.9v27.3h4.9v5.1h2.88zm-106.15-5h101.11v-7.57H136v-5.1h-4.9V88.4h4.9V84h2.88V73.69l3.5 1.48a5.69 5.69 0 0 0 2.12.45 2.36 2.36 0 0 0 2.11-.9l1.23-2.2-53.22-30a11.27 11.27 0 0 0-9.24 0l-53.22 30 1.23 2.2c.42.74 1.7 1.07 3.07.81l3-.58v9h3.18v4.45H48v37.39h-5.18v5.1h-5zm88.29-12.67h-20.18V88h20.18zm-15.14-5.05H121V93.05h-10.08zm-10.09 5.05h-22.7V88h22.7zm-17.65-5.05h12.61V93.05H83.18zm-10.09 5.05H52.91V88h20.18zM58 120.74h10V93.05H58z" fill="#64c19b" data-color="1"></path>
        <path d="M90 76.69a13.56 13.56 0 1 1 13.56-13.56A13.57 13.57 0 0 1 90 76.69zm0-22.07a8.52 8.52 0 1 0 8.51 8.51A8.52 8.52 0 0 0 90 54.62z" fill="#64c19b" data-color="1"></path>
    </g>
</svg>