<svg preserveAspectRatio="xMidYMid meet" data-bbox="36.1 22.63 107.83 134.74" viewBox="36.1 22.63 107.83 134.74" xmlns="http://www.w3.org/2000/svg" data-type="color" role="presentation" aria-hidden="true" aria-label="">
    <g>
        <path d="M143.78 49.58 117 22.74v-.11H58.56v27h4.49V27.12h49.41v27h26.94v67.37h-13.47v4.49h18v-76.4zM117 29.1l20.48 20.48H117z" fill="#64c19b" data-color="1"></path>
        <path d="M94.49 54.18v-.11H36.1v103.3h85.34V81h-.11zM115 81H94.49V60.53zm2 71.86H40.6v-94.3H90v27h27z" fill="#64c19b" data-color="1"></path>
        <path fill="#64c19b" d="M83.26 69.79v4.49H47.33v-4.49h35.93z" data-color="1"></path>
        <path fill="#64c19b" d="M110.21 92.25v4.49H47.33v-4.49h62.88z" data-color="1"></path>
        <path fill="#64c19b" d="M110.21 114.7v4.49H47.33v-4.49h62.88z" data-color="1"></path>
        <path fill="#64c19b" d="M110.21 137.16v4.49H47.33v-4.49h62.88z" data-color="1"></path>
    </g>
</svg>